<svg xmlns="http://www.w3.org/2000/svg" width="60" height="60" viewBox="0 0 60 60">
  <g id="make-call" transform="translate(-285 -690)">
    <circle id="Ellipse_24" data-name="Ellipse 24" cx="30" cy="30" r="30" transform="translate(285 690)" fill="#516091"/>
    <path id="phone-call" d="M14.476,4.823A4.778,4.778,0,0,1,18.251,8.6M14.476,1a8.6,8.6,0,0,1,7.6,7.588m-.956,7.626v2.867a1.911,1.911,0,0,1-2.083,1.911,18.912,18.912,0,0,1-8.247-2.934,18.635,18.635,0,0,1-5.734-5.734A18.912,18.912,0,0,1,2.12,4.039a1.911,1.911,0,0,1,1.9-2.083H6.888A1.911,1.911,0,0,1,8.8,3.6a12.271,12.271,0,0,0,.669,2.685A1.911,1.911,0,0,1,9.039,8.3L7.825,9.515a15.29,15.29,0,0,0,5.734,5.734l1.214-1.214a1.911,1.911,0,0,1,2.016-.43,12.271,12.271,0,0,0,2.685.669,1.911,1.911,0,0,1,1.644,1.94Z" transform="translate(302.888 709)" fill="none" stroke="#eef3ad" stroke-linecap="round" stroke-linejoin="round" stroke-width="2"/>
  </g>
</svg>
