<svg xmlns="http://www.w3.org/2000/svg" width="16.208" height="16.208" viewBox="0 0 16.208 16.208">
  <g id="phone-outgoing" transform="translate(-1.611 -0.293)">
    <path id="Pfad_14" data-name="Pfad 14" d="M23,7V1H17" transform="translate(-5.888)" fill="none" stroke="#707070" stroke-linecap="round" stroke-linejoin="round" stroke-width="1"/>
    <line id="Linie_12" data-name="Linie 12" y1="7" x2="7" transform="translate(10.112 1)" fill="none" stroke="#707070" stroke-linecap="round" stroke-linejoin="round" stroke-width="1"/>
    <path id="Pfad_15" data-name="Pfad 15" d="M16.112,12.482v2.108a1.407,1.407,0,0,1-1.535,1.405A13.949,13.949,0,0,1,8.5,13.838,13.713,13.713,0,0,1,4.279,9.622,13.885,13.885,0,0,1,2.118,3.531,1.406,1.406,0,0,1,3.518,2H5.63A1.407,1.407,0,0,1,7.038,3.208a9.006,9.006,0,0,0,.493,1.974,1.4,1.4,0,0,1-.317,1.482l-.894.892a11.252,11.252,0,0,0,4.224,4.215l.894-.892a1.41,1.41,0,0,1,1.485-.316,9.054,9.054,0,0,0,1.978.492,1.406,1.406,0,0,1,1.211,1.426Z" fill="none" stroke="#707070" stroke-linecap="round" stroke-linejoin="round" stroke-width="1"/>
  </g>
</svg>
