<svg xmlns="http://www.w3.org/2000/svg" width="16.179" height="16.208" viewBox="0 0 16.179 16.208">
  <g id="phone-incoming" transform="translate(-1.611 -0.293)">
    <path id="Pfad_10" data-name="Pfad 10" d="M16,2V6.3h4.3" transform="translate(-3.934 -0.283)" fill="none" stroke="#707070" stroke-linecap="round" stroke-linejoin="round" stroke-width="1"/>
    <line id="Linie_8" data-name="Linie 8" x1="5.017" y2="5.017" transform="translate(12.066 1)" fill="none" stroke="#707070" stroke-linecap="round" stroke-linejoin="round" stroke-width="1"/>
    <path id="Pfad_11" data-name="Pfad 11" d="M16.366,12.694v2.15A1.433,1.433,0,0,1,14.8,16.277a14.184,14.184,0,0,1-6.185-2.2,13.976,13.976,0,0,1-4.3-4.3,14.184,14.184,0,0,1-2.2-6.214A1.433,1.433,0,0,1,3.544,2h2.15A1.433,1.433,0,0,1,7.128,3.233a9.2,9.2,0,0,0,.5,2.014,1.433,1.433,0,0,1-.323,1.512l-.91.91a11.468,11.468,0,0,0,4.3,4.3l.91-.91a1.433,1.433,0,0,1,1.512-.323,9.2,9.2,0,0,0,2.014.5,1.433,1.433,0,0,1,1.233,1.455Z" transform="translate(0 -0.283)" fill="none" stroke="#707070" stroke-linecap="round" stroke-linejoin="round" stroke-width="1"/>
  </g>
</svg>
